Patient4_TMGait_0pt2_03_right_10_EMG.mot
version=1
nRows=33
nColumns=33
inDegrees=no
endheader
time	1LAddLong	2LGlutMax	3LGlutMed	4LIliopsoas	5LSemiMemb	6LBicFemLong	7LRecFem	8LVastMed	9LVastLat	10LGasMed	11LTibAnt	12lTibPost	13LPeroneusLong	14LSol	15LExtDigLong	16LFlexDigLong	17RAddLong	18RGlutMax	19RGlutMed	20RIliopsoas	21RSemiMemb	22RBicFemLong	23RRecFem	24RVastMed	25RVastLat	26RGasMed	27RTibAnt	28RTibPost	29RPeroneusLong	30RSol	31RExtDigLong	32RFlexDigLong
21.34	-0.002289	-0.045013	-0.40497	0.03418	0.10178	0.050812	0.012512	-0.015717	-0.20935	-0.018921	-0.012054	-0.21927	-0.08606	-0.36133	0.033569	-0.1619	-0.027161	-0.17425	1.6521	0.011139	-0.007629	-0.030212	-0.037994	0.040283	0.009918	0.00473	0.35797	-0.008698	-0.077057	0.005341	-0.000153	-0.021667
21.341	0.015106	0.002441	-0.12222	0.026855	0.059662	0.031281	0.074615	-0.036774	-0.063782	0.035706	-0.008545	0.071259	-0.14648	-0.37506	0.024109	-0.10727	0.003662	-0.10132	2.5703	-0.000305	0.001984	-0.036774	-0.017242	0.035248	0.010681	0.001526	0.28305	-0.003967	-0.18112	0.08316	-0.002594	-0.019531
21.342	0.016785	-0.039978	0.12131	0.007324	0.029297	0.021515	0.047913	-0.025482	-0.029297	0.015869	-0.001678	-0.23483	-0.002594	-0.16083	0.003357	-0.032043	-0.010529	-0.10056	2.3082	0.00885	0.006409	-0.047455	-0.084076	0.098877	0.014191	-0.005493	0.28717	-0.002594	-0.13489	0.049744	-0.002289	-0.017395
21.343	0.01236	0.015106	0.34729	-0.012665	0.049591	0.045013	0.061951	-0.009003	-0.015564	0.086823	-0.001221	0.18356	0.010376	-0.15274	-0.03891	-0.015259	-0.013123	-0.233	1.1322	0.11887	-0.005798	-0.033264	-0.081024	0.11017	0.021362	0.001984	0.23102	-0.002747	-0.12878	-0.04837	-0.004578	-0.009155
21.344	0.021362	0.038452	0.32486	-0.000305	0.064087	0.049591	0.048065	0.015869	0.016174	0.11215	0.001831	0.051422	0.068054	-0.20477	-0.030975	-0.002594	-0.00824	-0.29419	0.52231	0.15289	-0.001831	-0.020142	-0.057068	0.12024	0.031891	0.007629	-0.50964	0.000458	0.054169	-0.076904	-0.001373	-0.003357
21.345	0.024109	0.064392	0.10254	0.012207	0.047913	0.020752	0.030365	0.002594	0.002899	-0.046997	-0.003357	-0.015411	0.11795	-0.12329	-0.016479	0.043793	-0.015259	-0.28046	0.87189	0.16159	-0.01236	-0.009613	-0.042725	0.0914	0.036316	0.00946	-0.8844	-0.003357	0.10437	-0.043488	-0.000916	0.002747
21.346	0.015564	0.12924	0.081635	0.011902	0.026093	-0.00885	0.10086	0.010529	-0.070801	-0.015869	-0.00885	-0.009155	0.12116	-0.064697	-0.003052	0.012207	0.002747	-0.22675	1.0754	0.10132	-0.02182	-0.023499	-0.034637	0.073853	0.033264	0.000305	-0.71579	-0.001526	0.006714	0.061646	0.001831	-0.007935
21.347	0.007782	0.067139	0.08606	-0.000916	0.00946	-0.020905	0.063324	0.036469	-0.099487	0.14297	-0.00885	-0.005188	0.092926	-0.091553	0.003204	0.027771	0.024109	-0.17624	1.2225	-0.060425	-0.024261	-0.010681	-0.015869	0.058136	0.043182	0.002594	-0.25696	-0.004578	0.13947	0.19196	0.008087	-0.008545
21.348	0.01236	0.075378	0.079651	-0.008545	0.006256	-0.019379	-0.04837	0.037842	-0.096436	0.035553	-0.006409	-0.006561	0.039673	-0.082703	-0.023804	0.013123	0.07019	-0.19486	1.2109	-0.22003	-0.024261	0.004883	-0.037384	0.048218	0.033722	-0.002899	0.19989	0.000305	0.08316	0.1236	-0.003662	-0.008392
21.349	0.011597	0.088959	0.03952	0.00885	-0.011902	-0.028381	-0.072479	0.036774	-0.031128	0.023346	0.002747	-0.016632	-0.070496	-0.024261	-0.056915	0.006866	0.032501	-0.18829	1.2515	-0.30731	-0.007019	-0.016632	-0.005341	0.015564	0.028381	0.000763	0.65475	-0.001984	-0.011597	0.041809	-0.002747	-0.015564
21.35	-0.005188	0.080872	0.15411	-0.008392	0.007477	-0.026703	-0.11185	0.025787	0.072327	0.057831	0.034027	-0.015106	-0.00061	0.052032	0.006104	0.004883	0.02182	-0.18005	1.4058	-0.18906	-0.016785	-0.040436	-0.002136	0.031891	0.0177	-0.003052	0.91263	0.00061	-0.055237	0.050049	-0.003204	-0.013885
21.351	0.037231	0.021667	-0.033112	-0.002441	0.02243	-0.002136	-0.11353	0.010986	0.03067	0.001984	0.019073	-0.001984	0.4245	0.16983	0.081635	-0.012054	-0.002747	-0.21927	1.25	-0.14008	-0.016632	-0.021057	-0.013733	0.061035	0.032043	-0.008545	0.53375	-0.000153	-0.043182	0.12207	-0.00061	-0.017395
21.352	-0.050964	-0.001678	-0.077209	0.013428	0.014343	0.002441	0.002289	-0.007172	0.09491	-0.032196	0.019073	-0.005035	-0.29953	0.10346	0.11704	0.000305	-0.038605	-0.21149	1.0912	-0.18051	-0.029297	-0.023804	-0.036774	0.052032	0.045166	0.001984	-0.10483	0.000305	-0.017853	0.13123	-0.00351	-0.021515
21.353	-0.034332	-0.059357	-0.099945	0.042419	0.016327	-0.016632	0.064392	-0.015411	0.28473	-0.027924	-0.001221	0.005341	-0.065613	0.063171	-0.016327	-0.019684	-0.092316	-0.16541	1.176	-0.27084	-0.046082	-0.027771	-0.028687	0.11017	0.027618	0.001831	-0.41824	0.008087	-0.014038	0.059814	0.001984	-0.018005
21.354	0.005951	-0.046234	0.036469	0.039368	0.021057	-0.007935	0.001068	-0.004578	0.41763	-0.021057	-0.032501	-0.005188	0.74127	0.1561	-0.070343	-0.018768	-0.12604	-0.087891	1.1	-0.27542	-0.066223	-0.027008	-0.030365	0.1088	0.013428	0.004425	0.021973	0.003967	-0.085297	0.029755	0.001678	-0.016174
21.355	0.011139	0.010376	-0.035248	-0.007324	0.011597	0.013733	0.045929	0.004883	0.24933	-0.005951	-0.040894	-0.006256	0.40482	0.14542	-0.036926	0.006866	-0.103	-0.070038	1.364	-0.21683	-0.057068	-0.023499	-0.069427	0.11017	0.011749	0.003662	0.023041	0.002289	-0.098572	0.01358	-0.002441	-0.016785
21.356	-0.003967	0.082092	-0.087738	0.030823	-0.005035	0.025482	0.19867	0.014343	0.022278	0.00412	-0.025787	-0.009308	-0.09079	0.13336	-0.072174	0.019379	-0.053711	-0.096436	1.1507	-0.17212	-0.046082	-0.021362	-0.098572	0.14603	0.037994	0.007019	-0.06424	0.004272	-0.12665	-0.001373	-0.003662	-0.014343
21.357	0.000763	0.17364	-0.12802	0.015869	-0.016327	0.029907	0.2533	-0.013733	-0.20691	-0.000153	-0.00824	-0.010681	-0.20691	0.054321	-0.01709	-0.003357	0.021515	-0.12238	0.89371	-0.067291	-0.045929	-0.036316	-0.11002	0.091248	0.025177	0.007629	-0.080261	0.000916	-0.15213	0.018311	-0.00824	-0.013733
21.358	0.008698	0.25742	0.084991	0.024872	-0.015564	-0.001373	0.066833	0.00885	-0.15701	0.016022	0.014648	-0.005798	-0.4866	-0.21164	-0.062866	-0.023956	0.031281	-0.1152	0.97214	0.033112	-0.045776	-0.010071	-0.093536	0.04837	0.028992	-0.004272	-0.13641	0.002594	-0.1152	0.055084	-0.003204	-0.019989
21.359	0.013733	0.24612	0.19073	-0.002594	-0.007172	0.013885	-0.12283	0.03006	-0.09613	-0.007782	-0.00946	-0.006409	-0.1326	-0.12711	-0.012817	-0.014343	0.056305	-0.11078	1.5005	-0.10162	-0.050964	-0.014496	-0.093384	0.058136	0.025635	-0.003662	-0.11856	0.002136	0.044556	0.028687	-0.004425	-0.016022
21.36	0.016785	0.177	-0.11032	-0.022888	-0.009918	0.025177	-0.22766	0.030212	-0.01297	0.003204	-0.010681	-0.005493	0.033569	-0.068817	-0.023804	-0.019226	0.078278	-0.089264	1.7603	-0.054016	-0.057068	-0.015717	-0.10376	0.041962	0.020294	0.001678	-0.46188	0.001526	0.072784	0.052338	-0.006104	-0.013123
21.361	0.009766	0.20355	-0.11108	-0.021057	0.001678	0.015259	-0.17777	0.024872	-0.11795	-0.013885	-0.005951	-0.001984	0.22446	0.048218	0.020599	-0.02533	0.058899	-0.12116	0.77957	-0.047302	-0.07843	-0.045319	-0.10971	0.010223	0.033722	0.002136	-0.44083	0.002136	0.12817	-0.004425	-0.003357	-0.010071
21.362	0.010529	0.28671	-0.24017	-0.010223	0.005798	0.030365	-0.14954	0.004272	-0.22003	-0.007477	0.011902	-0.002747	0.025177	-0.059509	-0.030518	-0.02594	0.028687	-0.10819	0.91065	-0.019379	-0.090485	-0.038605	-0.1384	-0.01358	0.029144	0.001831	-0.34927	0.001221	0.10651	-0.002899	-0.003815	-0.00885
21.363	0.012512	0.23926	-0.35461	0.01358	0.003204	0.008392	-0.22675	0.00412	-0.28656	0.007324	0.011444	0.000763	-0.33524	-0.121	-0.018921	-0.017395	-0.002136	-0.09903	0.77606	0.095367	-0.090637	-0.032806	-0.11688	0.003967	0.024719	-0.007172	-0.2655	-0.005493	0.011597	0.080109	-0.002594	-0.011139
21.364	0.005493	0.19058	-0.16617	0.006714	0.008392	0.025482	-0.32044	0.00885	-0.24063	-0.035095	0.009308	0.02121	-0.11231	0.047913	0.071564	-0.027161	0.017548	-0.1355	0.40375	0.30563	-0.06546	-0.023804	-0.15182	0.063934	0.048676	-0.010071	-0.34729	-0.00412	-0.026398	0.06958	-0.004578	-0.010529
21.365	-0.00946	0.17532	0.13229	-0.010681	0.000763	0.018921	-0.35828	-0.001221	-0.069885	-0.067749	0.006256	0.017395	-0.16098	0.19379	0.11322	-0.014191	0.023804	-0.088348	0.24582	0.30945	-0.074768	0.011444	-0.10895	0.058441	0.044403	-0.007782	-0.22873	-0.000153	-0.10178	-0.009918	-0.00351	-0.012512
21.366	0.006256	0.028992	-0.12161	0.003967	0.003204	0.015106	-0.103	-0.047302	0.034943	-0.092621	0.005188	0.013733	-0.10788	0.19333	0.054779	0.017242	0.006104	-0.073242	-0.052643	0.22079	-0.090942	0.010529	-0.11322	0.027161	0.043945	0.001221	-0.00351	-0.002594	-0.091248	0.007629	0.000916	-0.015259
21.367	0.00412	-0.10239	-0.31052	-0.009003	-0.00061	-0.009003	0.17792	-0.030975	0.10513	-0.12024	-0.011292	-0.082092	-0.094147	0.1831	0.04715	-0.00473	-0.048981	-0.088348	0.35782	0.19852	-0.081177	0.029907	-0.12756	0.037689	0.049438	-0.003357	0.0383	-0.001221	-0.045624	0.074768	-0.001221	-0.010071
21.368	-0.007629	-0.044098	-0.38635	0.010681	-0.003357	-0.004578	0.26794	0.015869	0.0914	-0.039978	-0.006409	-0.11795	0.092468	0.1239	-0.005798	-0.007172	-0.090637	-0.12024	0.80566	0.07843	-0.082245	0.067749	-0.13992	0.097809	0.044098	0.006714	0.19852	0.000458	-0.006409	-0.015717	-0.001526	-0.019226
21.369	-0.018616	0.095367	-0.1091	0.035553	-0.008545	0.027008	0.20416	0.040131	-0.008087	-0.014343	0.014191	0.098877	0.26016	0.1413	0.026855	-0.018005	-0.094299	-0.097046	1.0239	0.001068	-0.065765	0.049744	-0.1091	0.096893	0.019531	0	0.10468	-0.000458	0.037079	-0.038147	-0.000916	-0.016327
21.37	-0.004272	0.10117	-0.041962	0.038757	-0.006256	0.020599	0.070953	0.040436	-0.11292	0.036926	0.003052	0.061646	-0.080872	0.064697	0.059052	-0.04364	-0.057068	-0.12589	0.81329	0.091248	-0.082092	0.008392	-0.11643	0.13916	0.01709	-0.010223	-0.13214	0.000305	0.008087	0.032654	-0.003052	-0.02594
21.371	-0.006866	0.024414	0.037384	-0.005798	-0.005035	-0.015411	-0.035858	0.059509	-0.087433	0.17807	-0.018311	-0.11444	0.032043	-0.29297	-0.10574	-0.058746	-0.029297	-0.19119	0.60272	0.31143	-0.078125	0.00351	-0.14313	0.15762	0.019989	-0.004883	-0.20279	-0.000305	-0.017548	0.11429	-0.002899	-0.027466
21.372	0.009155	0.044556	0.19577	0.014191	0.004425	-0.084381	-0.24017	0.065765	0.13153	0.1886	-0.01236	0.012817	-0.16876	-0.5751	-0.073242	-0.074463	-0.006561	-0.15457	0.092163	0.22583	-0.08728	-0.027161	-0.12405	0.10727	0.010681	0.004578	-0.16495	0.001831	-0.005188	0.063477	-0.001831	-0.0177
